<svg width="1934" height="1935" xmlns="http://www.w3.org/2000/svg" xmlns:xlink="http://www.w3.org/1999/xlink" overflow="hidden"><defs><clipPath id="clip0"><rect x="439" y="270" width="1934" height="1935"/></clipPath></defs><g clip-path="url(#clip0)" transform="translate(-439 -270)"><path d="M2373 1237.5C2373 1771.84 1940.06 2205 1406 2205 871.941 2205 439 1771.84 439 1237.5 439 703.165 871.941 270 1406 270 1940.06 270 2373 703.165 2373 1237.5Z" fill-rule="evenodd"/><path d="M1406 2127.62C1897.33 2127.62 2295.66 1729.12 2295.66 1237.5 2295.66 745.915 1897.33 347.384 1406 347.384 914.669 347.384 516.344 745.915 516.344 1237.5 516.344 1729.09 914.669 2127.62 1406 2127.62ZM1406 2205C1940.05 2205 2373 1771.82 2373 1237.5 2373 703.179 1940.05 270 1406 270 871.955 270 439 703.179 439 1237.5 439 1771.86 871.919 2205 1406 2205Z" fill="#ECCC68" fill-rule="evenodd"/><path d="M871.896 1016.16 1406 723.423 1940.1 1016.16 1940.02 1016.21 2010.69 1054.94 2048.89 1075.92 2048.89 1334.33 2138 1334.33 2138 1016.16 1406 615 674 1016.16 1406 1417.32 1743.33 1232.42 1743.33 1566.63 1405.96 1751.53 1068.63 1566.68 1068.63 1334.33 979.528 1334.33 979.528 1399.84 979.528 1626.3 1406 1860 1832.47 1626.3 1832.47 1183.63 1832.47 1183.58 1832.39 1183.58 1733.57 1129.39 1406 1308.9 871.896 1016.16Z" stroke="#ECCC68" stroke-width="10.3125" stroke-miterlimit="8" fill="#ECCC68" fill-rule="evenodd"/></g></svg>